<svg width="369" height="416" viewBox="0 0 369 416" fill="none" xmlns="http://www.w3.org/2000/svg">
<g opacity="0.6">
<path d="M183.5 298.6L33.05 216.4L183.5 134.2L333.95 216.4L183.5 298.6Z" fill="url(#paint0_linear_30_6)"/>
<path d="M183.5 298.6L33.05 216.4V298.6L183.5 380.8V298.6Z" fill="url(#paint1_linear_30_6)"/>
<path d="M183.5 298.6V380.8L333.95 298.6V216.4L183.5 298.6Z" fill="url(#paint2_linear_30_6)"/>
</g>
<g filter="url(#filter0_d_30_6)">
<path d="M184 164.2V246.4L334.45 164.2V82L184 164.2Z" fill="url(#paint3_linear_30_6)"/>
<path d="M184.45 164.2L34 82V164.2L184.45 246.4V164.2Z" fill="url(#paint4_linear_30_6)"/>
<path d="M184.45 164.4L34 82.2L184.45 0L334.9 82.2L184.45 164.4Z" fill="url(#paint5_linear_30_6)"/>
</g>
<defs>
<filter id="filter0_d_30_6" x="0.0999985" y="0" width="368.7" height="415.3" filterUnits="userSpaceOnUse" color-interpolation-filters="sRGB">
<feFlood flood-opacity="0" result="BackgroundImageFix"/>
<feColorMatrix in="SourceAlpha" type="matrix" values="0 0 0 0 0 0 0 0 0 0 0 0 0 0 0 0 0 0 127 0" result="hardAlpha"/>
<feOffset dy="135"/>
<feGaussianBlur stdDeviation="16.95"/>
<feComposite in2="hardAlpha" operator="out"/>
<feColorMatrix type="matrix" values="0 0 0 0 0 0 0 0 0 0 0 0 0 0 0 0 0 0 0.25 0"/>
<feBlend mode="normal" in2="BackgroundImageFix" result="effect1_dropShadow_30_6"/>
<feBlend mode="normal" in="SourceGraphic" in2="effect1_dropShadow_30_6" result="shape"/>
</filter>
<linearGradient id="paint0_linear_30_6" x1="33.05" y1="134.2" x2="13867.6" y2="25455.5" gradientUnits="userSpaceOnUse">
<stop stop-color="#363A45"/>
<stop offset="1" stop-color="#2A2D38"/>
</linearGradient>
<linearGradient id="paint1_linear_30_6" x1="33.05" y1="216.4" x2="15078.1" y2="216.4" gradientUnits="userSpaceOnUse">
<stop stop-color="#2A2E38"/>
<stop offset="1" stop-color="#323640"/>
</linearGradient>
<linearGradient id="paint2_linear_30_6" x1="183.5" y1="216.4" x2="15228.5" y2="216.4" gradientUnits="userSpaceOnUse">
<stop stop-color="#232730"/>
<stop offset="1" stop-color="#2A2E38"/>
</linearGradient>
<linearGradient id="paint3_linear_30_6" x1="184" y1="82" x2="15229" y2="82" gradientUnits="userSpaceOnUse">
<stop stop-color="#85899A"/>
<stop offset="1" stop-color="#9A9EA8"/>
</linearGradient>
<linearGradient id="paint4_linear_30_6" x1="34" y1="82" x2="15079" y2="82" gradientUnits="userSpaceOnUse">
<stop stop-color="#969BA8"/>
<stop offset="1" stop-color="#ABAEB8"/>
</linearGradient>
<linearGradient id="paint5_linear_30_6" x1="34" y1="0" x2="13868.6" y2="25321.3" gradientUnits="userSpaceOnUse">
<stop stop-color="#B8BDC8"/>
<stop offset="0.5" stop-color="#D0D3DA"/>
<stop offset="1" stop-color="#A8ADB8"/>
</linearGradient>
</defs>
</svg>
