<svg width="749" height="744" viewBox="0 0 749 744" fill="none" xmlns="http://www.w3.org/2000/svg">
<path d="M55.8571 487.986C55.8121 484.169 56.5526 477.856 57.5661 472.591C57.9616 470.485 58.3808 468.548 58.7414 466.975C58.7644 466.874 58.7874 466.773 58.8105 466.672C59.1128 465.365 59.3943 464.13 59.7416 462.69C60.6111 459.269 61.6634 454.577 65.2156 445.25C66.084 442.768 67.0256 440.283 68.0252 437.848C68.1253 437.604 68.226 437.36 68.3274 437.117C72.9012 426.164 78.7751 415.647 86.2987 406.249C93.9964 396.65 103.555 388.174 115.012 382.745C121.983 379.442 129.447 377.375 137.33 376.762C137.756 376.72 138.179 376.684 138.601 376.651C142.913 376.306 147.609 376.433 151.966 377.015C151.966 377.015 151.966 377.015 151.966 377.015C156.121 377.556 159.753 378.475 162.824 379.612C170.831 382.636 175.294 386.409 178.559 389.671C181.507 392.537 184.033 395.883 186.033 399.362C192.921 411.506 194.583 425.279 194.741 438.247C194.797 445.934 194.227 453.626 193.305 461.166C192.654 466.48 191.811 471.811 190.844 477.044C190.425 479.312 189.994 481.505 189.533 483.737C188.111 490.612 186.481 497.418 184.688 504.189C183.785 507.914 182.887 511.471 182.016 514.774C181.963 514.977 181.909 515.178 181.856 515.379C180.565 520.253 179.325 524.595 178.212 528.122C175.731 536.01 172.475 544.654 169.741 551.442C169.515 552.006 169.296 552.548 169.072 553.1C168.606 554.251 168.164 555.33 167.755 556.322C165.631 561.9 163.427 567.433 161.111 572.979C160.919 573.326 160.725 573.674 160.527 574.026C158.64 577.407 156.773 581.399 154.218 586.815C153.334 588.688 152.635 590.675 152.327 592.649C151.776 596.04 152.43 599.876 156.443 602.303C159.018 603.82 160.841 604.329 162.101 604.793C162.502 604.924 162.894 605.04 163.304 605.142C164.453 605.429 165.671 605.472 167.189 605.411C167.422 605.399 167.663 605.385 167.912 605.368C170.222 605.211 172.909 604.871 176.632 604.616C188.608 603.503 193.393 600.93 197.168 599.373C198.054 598.97 198.88 598.586 199.727 598.216C199.88 598.15 200.034 598.083 200.189 598.017C203.519 596.615 208.222 594.879 211.806 593.531C214.72 592.456 220.039 589.718 224.13 587.302C225.6 586.435 227.663 585.343 230.154 583.967C230.328 583.871 230.504 583.773 230.682 583.675C233.079 582.343 235.721 580.826 238.619 578.992C246.179 574.172 250.149 571.37 253.314 569.168C254.225 568.529 255.084 567.922 255.932 567.316C256.975 566.569 258.131 565.742 259.36 564.855C261.152 563.562 263.145 562.111 265.094 560.664C268.882 557.853 272.994 554.686 275.82 552.386C279.43 549.715 283.271 546.788 286.771 544.06C290.868 540.864 294.913 537.619 298.89 534.343C302.873 531.06 306.649 528.341 309.832 526.491C312.991 524.662 315.156 523.98 315.818 524.716C316.482 525.445 315.592 527.544 313.382 530.487C311.148 533.45 307.909 536.877 303.975 540.325C300.05 543.767 296.05 547.183 291.986 550.548C288.272 553.629 284.134 556.951 280.283 559.941C274.933 564.092 269.774 567.923 264.186 571.841C259.474 575.146 254.464 578.486 249.51 581.586C244.611 584.655 239.47 587.691 234.44 590.455C231.767 591.925 229.207 593.278 226.573 594.616C225.743 595.037 224.918 595.45 224.098 595.855C217.632 599.38 210.803 602.596 205.995 604.532C204.752 605.037 203.573 605.481 202.513 605.857C200.114 606.705 198.084 607.296 196.214 607.81C194.367 608.314 192.904 608.677 191.169 609.168C190.281 609.419 189.08 609.755 187.668 610.117C182.866 611.329 175.08 613.06 166.878 612.638C164.8 612.52 163.059 612.311 160.986 611.874C156.586 610.933 150.622 608.61 147.414 603.134C142.96 594.993 146.974 587.403 147.858 584.833C147.97 584.558 148.089 584.281 148.213 584.001C150.245 579.411 152.691 574.229 154.783 569.613C156.898 564.955 158.648 560.911 159.459 558.461C160.413 555.566 161.424 553.237 162.929 549.653C163.025 549.425 163.123 549.191 163.223 548.951C164.183 546.654 165.364 543.764 166.76 540.016C168.552 535.194 169.852 531.818 170.951 528.922C172.489 524.847 173.614 521.781 174.834 517.053C175.182 515.694 175.536 514.32 175.888 512.955C176.897 509.051 177.894 505.224 178.801 502.061C179.361 500.11 179.936 497.864 180.507 495.53C181.265 492.432 182.02 489.153 182.759 486.203C183.375 483.74 183.982 481.738 184.505 479.969C184.668 479.417 184.822 478.888 184.965 478.375C185.113 477.598 185.257 476.822 185.398 476.048C185.617 474.837 185.827 473.631 186.026 472.428C186.049 472.104 186.072 471.763 186.094 471.408C186.208 469.63 186.342 467.381 186.599 464.698C187.008 460.419 187.516 456.707 187.938 452.746C188.261 449.666 188.529 446.487 188.555 442.797C188.563 441.411 188.535 439.932 188.471 438.356C188.419 437.125 188.345 435.881 188.253 434.658C187.944 430.443 187.38 426.499 186.985 423.629C186.844 422.58 186.802 421.675 186.749 420.785C186.749 420.781 186.749 420.777 186.749 420.773C186.746 420.715 186.741 420.649 186.737 420.587C185.407 414.333 183.264 408.202 180.015 402.942C179.776 402.555 179.532 402.174 179.283 401.798C178.949 401.333 178.603 400.873 178.253 400.427C176.522 398.201 174.599 396.342 173.197 395.306C171.736 394.164 167.937 391.182 163.517 389.394C160.684 388.179 157.265 387.254 154.544 386.831C153.301 386.63 152.071 386.364 150.781 386.108C150.781 386.108 150.781 386.108 150.781 386.108C150.378 386.027 149.976 385.948 149.574 385.873C148.017 385.582 146.44 385.346 144.751 385.329C143.898 385.321 142.947 385.366 141.974 385.442C141.113 385.509 140.219 385.6 139.3 385.696C138.463 385.784 136.502 385.869 134.072 386.194C132.585 386.39 130.792 386.705 128.996 387.14C125.582 388.119 122.254 389.44 119.075 391.053C117.858 391.671 116.653 392.336 115.484 393.032C114.647 393.641 113.958 394.231 113.458 394.763C113.1 395.145 112.823 395.511 112.543 395.889C112.162 396.403 111.783 396.93 111.196 397.566C110.737 398.063 110.143 398.571 109.689 398.844C109.477 398.97 109.296 399.045 109.132 399.113C108.944 399.192 108.776 399.263 108.608 399.397C108.487 399.493 108.383 399.623 108.256 399.782C108.049 400.039 107.795 400.362 107.318 400.761C105.552 402.235 103.542 404.029 101.707 405.848C99.6257 407.904 97.7384 410.007 96.3029 411.801C95.9511 412.24 95.555 412.729 95.1468 413.234C93.6978 415.019 91.8879 417.297 90.2167 419.607C88.7069 421.687 87.2587 423.857 86.1167 425.751C84.987 427.62 83.9632 429.662 83.0312 431.65C81.9021 434.054 80.9011 436.387 79.9108 438.317C79.7102 438.708 79.3531 439.146 78.9089 439.703C78.5946 440.096 78.2331 440.557 77.8594 441.089C77.7648 441.316 77.6707 441.544 77.577 441.771C76.6179 444.103 75.7044 446.485 74.8543 448.865C74.8409 448.964 74.827 449.066 74.8135 449.168C74.8134 449.17 74.8134 449.172 74.8133 449.173C74.5109 451.491 74.1387 454.631 72.5751 458.727C72.1785 459.771 71.8203 460.401 71.4982 460.971C71.1826 461.53 70.9019 462.033 70.6727 462.816C70.4128 463.705 70.2499 464.791 70.0874 465.974C69.859 467.633 69.6307 469.496 69.1168 471.298C69.0817 471.421 69.0438 471.554 69.005 471.692C68.7932 472.446 68.53 473.404 68.2217 474.458C67.994 475.235 67.7428 476.059 67.4689 476.878C66.4472 482.732 65.732 488.665 65.3733 494.584C65.0955 499.178 65.0316 503.781 65.2171 508.347C65.4336 513.634 65.9799 518.895 66.9682 524.095C67.8498 528.797 68.7794 533.283 69.3252 536.672C69.8977 540.142 69.9419 542.234 69.0631 542.672C68.2047 543.091 66.4458 541.778 64.4106 538.578C62.4125 535.481 60.4625 530.791 59.2899 525.732C57.9809 520.141 57.1569 514.516 56.6934 508.875C56.4716 506.153 56.336 503.484 56.2768 500.737C56.2555 500.301 56.2368 499.866 56.2213 499.429C56.1067 496.191 55.9582 493.114 55.8879 490.094C55.8723 489.395 55.8614 488.692 55.8571 487.986Z" fill="white"/>
<path d="M679.904 517.164C683.819 517.312 687.301 519.739 688.786 523.389L747.354 667.389C749.986 673.863 745.34 680.933 738.422 681.152L738.091 681.157H10.0107L9.67773 681.152C2.82774 680.933 -1.78264 674.003 0.663083 667.601L0.787106 667.292L34.3408 587.221C34.9637 585.735 36.4181 584.767 38.0299 584.767V584.767C40.8876 584.767 42.8235 587.677 41.719 590.313L8.16601 670.383C7.61401 671.701 8.58153 673.157 10.0107 673.157H738.091C739.466 673.157 740.418 671.807 739.989 670.527L739.943 670.403L681.376 526.403C681.088 525.696 680.426 525.219 679.675 525.163L679.523 525.157H345.625C343.416 525.157 341.625 523.366 341.625 521.157V521.157C341.625 518.948 343.416 517.157 345.625 517.157H679.523L679.904 517.164Z" fill="white"/>
<path d="M4.05103 671.157V739.157H744.051V673.142" stroke="white" stroke-width="8" stroke-linejoin="round"/>
<path d="M656.843 57.4384L393.534 402.071L440.856 438.226L704.165 93.5939L656.843 57.4384Z" stroke="white" stroke-width="6"/>
<path d="M656.844 57.4399L688.587 15.8936C695.293 7.11647 707.844 5.43746 716.621 12.1434L732.159 24.0145C740.936 30.7205 742.615 43.2719 735.909 52.0491L704.166 93.5954L656.844 57.4399Z" stroke="white" stroke-width="6"/>
<path d="M392.164 403.866L354.013 501.263C353.647 502.199 354.734 503.03 355.541 502.43L439.486 440.022" stroke="white" stroke-width="6" stroke-linecap="round" stroke-linejoin="round"/>
</svg>
